# xmcd CD database file
#
# Track frame offsets:
#        150
#        15675
#        28375
#        39002
#        50532
#        62162
#        70544
#        81306
#        93344
#        106757
#
# Disc length: 1577 seconds
#
# Revision: 0
# Processed by: cddbd v1.5.2PL0 Copyright (c) Steve Scherf et al.
# Submitted via: CUERipper 2.1.2a
#
DISCID=7706270a
DTITLE=Conway Twitty - Hits
DYEAR=1971
DGENRE=Country
TTITLE0=Star Spangled Heaven
TTITLE1=Long Black Train
TTITLE2=Turn Around
TTITLE3=Portrait Of A Fool
TTITLE4=There Is Something On Your Mind
TTITLE5=Just Because
TTITLE6=I Hope, I Think, I Wish
TTITLE7=What Am I Living For
TTITLE8=I'm In A Blue, Blue Mood (With Roy Orbison)
TTITLE9=What A Dream
EXTD=
EXTT0=
EXTT1=
EXTT2=
EXTT3=
EXTT4=
EXTT5=
EXTT6=
EXTT7=
EXTT8=
EXTT9=
PLAYORDER=
